<svg width="40" height="40" viewBox="0 0 40 40" fill="none" xmlns="http://www.w3.org/2000/svg">
<mask id="mask0_23_55" style="mask-type:alpha" maskUnits="userSpaceOnUse" x="0" y="0" width="40" height="40">
<rect width="40" height="40" fill="#D9D9D9"/>
</mask>
<g mask="url(#mask0_23_55)">
<path d="M15 30C14.0833 30 13.2986 29.6736 12.6458 29.0208C11.9931 28.3681 11.6667 27.5833 11.6667 26.6667V6.66668C11.6667 5.75001 11.9931 4.96529 12.6458 4.31251C13.2986 3.65973 14.0833 3.33334 15 3.33334H30C30.9167 3.33334 31.7014 3.65973 32.3542 4.31251C33.0069 4.96529 33.3333 5.75001 33.3333 6.66668V26.6667C33.3333 27.5833 33.0069 28.3681 32.3542 29.0208C31.7014 29.6736 30.9167 30 30 30H15ZM15 26.6667H30V6.66668H15V26.6667ZM8.33333 36.6667C7.41667 36.6667 6.63194 36.3403 5.97917 35.6875C5.32639 35.0347 5 34.25 5 33.3333V10H8.33333V33.3333H26.6667V36.6667H8.33333Z" fill="#002254"/>
</g>
</svg>
