<svg width="40" height="40" viewBox="0 0 40 40" fill="none" xmlns="http://www.w3.org/2000/svg">
<mask id="mask0_23_61" style="mask-type:alpha" maskUnits="userSpaceOnUse" x="0" y="0" width="40" height="40">
<rect width="40" height="40" fill="#D9D9D9"/>
</mask>
<g mask="url(#mask0_23_61)">
<path d="M10 36.6667C8.61111 36.6667 7.43056 36.1806 6.45833 35.2083C5.48611 34.2361 5 33.0556 5 31.6667V26.6667H10V3.33334H35V31.6667C35 33.0556 34.5139 34.2361 33.5417 35.2083C32.5694 36.1806 31.3889 36.6667 30 36.6667H10ZM30 33.3333C30.4722 33.3333 30.8681 33.1736 31.1875 32.8542C31.5069 32.5347 31.6667 32.1389 31.6667 31.6667V6.66668H13.3333V26.6667H28.3333V31.6667C28.3333 32.1389 28.4931 32.5347 28.8125 32.8542C29.1319 33.1736 29.5278 33.3333 30 33.3333ZM15 15V11.6667H30V15H15ZM15 20V16.6667H30V20H15ZM10 33.3333H25V30H8.33333V31.6667C8.33333 32.1389 8.49306 32.5347 8.8125 32.8542C9.13194 33.1736 9.52778 33.3333 10 33.3333ZM10 33.3333H8.33333H25H10Z" fill="#002254"/>
</g>
</svg>
