<svg width="40" height="40" viewBox="0 0 40 40" fill="none" xmlns="http://www.w3.org/2000/svg">
<mask id="mask0_21_25" style="mask-type:alpha" maskUnits="userSpaceOnUse" x="0" y="0" width="40" height="40">
<rect width="40" height="40" fill="#D9D9D9"/>
</mask>
<g mask="url(#mask0_21_25)">
<path d="M20 36.6667C17.713 36.6667 15.5556 36.2292 13.5278 35.3542C11.5 34.4792 9.73147 33.2894 8.22219 31.7847C6.71294 30.2801 5.52081 28.5139 4.64581 26.4861C3.77081 24.4584 3.33331 22.3056 3.33331 20.0278C3.33331 15.6482 4.80091 11.8796 7.73611 8.72221C10.6713 5.56482 14.3055 3.80557 18.6389 3.44446V7.94442C15.5555 8.27776 12.9838 9.59026 10.9236 11.8819C8.8634 14.1736 7.83331 16.8889 7.83331 20.0278C7.83331 23.3982 9.01849 26.2639 11.3889 28.625C13.7592 30.9861 16.6296 32.1667 20 32.1667C21.9444 32.1667 23.7755 31.7361 25.4931 30.875C27.2106 30.0139 28.6667 28.8148 29.8611 27.2778L33.75 29.5278C32.1759 31.7593 30.1852 33.507 27.7778 34.7708C25.3704 36.0347 22.7778 36.6667 20 36.6667ZM35.1389 27L31.25 24.8056C31.5555 24.0093 31.7847 23.2107 31.9375 22.4097C32.0903 21.6088 32.1666 20.8056 32.1666 20C32.1666 16.8611 31.1412 14.1412 29.0903 11.8403C27.0393 9.53934 24.4815 8.23148 21.4166 7.91667V3.41667C25.7315 3.75926 29.3518 5.50463 32.2778 8.6528C35.2037 11.8009 36.6666 15.5463 36.6666 19.8889C36.6666 21.1296 36.5416 22.3426 36.2916 23.5278C36.0416 24.713 35.6574 25.8704 35.1389 27Z" fill="#002250"/>
</g>
</svg>
