<svg width="40" height="40" viewBox="0 0 40 40" fill="none" xmlns="http://www.w3.org/2000/svg">
<mask id="mask0_23_43" style="mask-type:alpha" maskUnits="userSpaceOnUse" x="0" y="0" width="40" height="40">
<rect width="39.0244" height="40" fill="#D9D9D9"/>
</mask>
<g mask="url(#mask0_23_43)">
<path d="M1.62604 33.3334V26.6667C1.62604 25.7222 1.94447 24.9306 2.58132 24.2917C3.21818 23.6528 3.98376 23.3334 4.87807 23.3334H10.2033C10.7453 23.3334 11.2602 23.4722 11.748 23.75C12.2358 24.0278 12.6287 24.4028 12.9269 24.875C13.7128 25.9584 14.6816 26.8056 15.8334 27.4167C16.9851 28.0278 18.2114 28.3334 19.5122 28.3334C20.8401 28.3334 22.08 28.0278 23.2317 27.4167C24.3835 26.8056 25.3388 25.9584 26.0976 24.875C26.4499 24.4028 26.8632 24.0278 27.3374 23.75C27.8117 23.4722 28.3063 23.3334 28.8212 23.3334H34.1464C35.0678 23.3334 35.8401 23.6528 36.4634 24.2917C37.0867 24.9306 37.3984 25.7222 37.3984 26.6667V33.3334H26.0163V29.5417C25.0678 30.2361 24.0447 30.7639 22.9472 31.125C21.8496 31.4861 20.7046 31.6667 19.5122 31.6667C18.3469 31.6667 17.2087 31.4792 16.0976 31.1042C14.9865 30.7292 13.9567 30.1945 13.0082 29.5V33.3334H1.62604ZM19.5122 26.6667C18.4824 26.6667 17.5068 26.4236 16.5854 25.9375C15.664 25.4514 14.8916 24.7778 14.2683 23.9167C13.8076 23.2222 13.2317 22.6736 12.5407 22.2709C11.8496 21.8681 11.0976 21.6667 10.2846 21.6667C10.8808 20.6389 12.1409 19.8264 14.0651 19.2292C15.9892 18.632 17.8049 18.3334 19.5122 18.3334C21.2195 18.3334 23.0353 18.632 24.9594 19.2292C26.8835 19.8264 28.1437 20.6389 28.7399 21.6667C27.954 21.6667 27.2087 21.8681 26.5041 22.2709C25.7995 22.6736 25.2168 23.2222 24.7561 23.9167C24.1599 24.8056 23.4011 25.4861 22.4797 25.9584C21.5583 26.4306 20.5691 26.6667 19.5122 26.6667ZM6.50409 21.6667C5.14907 21.6667 3.99731 21.1806 3.0488 20.2084C2.10029 19.2361 1.62604 18.0556 1.62604 16.6667C1.62604 15.25 2.10029 14.0625 3.0488 13.1042C3.99731 12.1459 5.14907 11.6667 6.50409 11.6667C7.8862 11.6667 9.04474 12.1459 9.9797 13.1042C10.9147 14.0625 11.3821 15.25 11.3821 16.6667C11.3821 18.0556 10.9147 19.2361 9.9797 20.2084C9.04474 21.1806 7.8862 21.6667 6.50409 21.6667ZM32.5203 21.6667C31.1653 21.6667 30.0136 21.1806 29.0651 20.2084C28.1166 19.2361 27.6423 18.0556 27.6423 16.6667C27.6423 15.25 28.1166 14.0625 29.0651 13.1042C30.0136 12.1459 31.1653 11.6667 32.5203 11.6667C33.9025 11.6667 35.061 12.1459 35.996 13.1042C36.9309 14.0625 37.3984 15.25 37.3984 16.6667C37.3984 18.0556 36.9309 19.2361 35.996 20.2084C35.061 21.1806 33.9025 21.6667 32.5203 21.6667ZM19.5122 16.6667C18.1572 16.6667 17.0054 16.1806 16.0569 15.2084C15.1084 14.2361 14.6342 13.0556 14.6342 11.6667C14.6342 10.25 15.1084 9.06252 16.0569 8.10419C17.0054 7.14585 18.1572 6.66669 19.5122 6.66669C20.8943 6.66669 22.0529 7.14585 22.9878 8.10419C23.9228 9.06252 24.3903 10.25 24.3903 11.6667C24.3903 13.0556 23.9228 14.2361 22.9878 15.2084C22.0529 16.1806 20.8943 16.6667 19.5122 16.6667Z" fill="#002254"/>
</g>
</svg>
