<svg width="40" height="40" viewBox="0 0 40 40" fill="none" xmlns="http://www.w3.org/2000/svg">
<mask id="mask0_31_37" style="mask-type:alpha" maskUnits="userSpaceOnUse" x="0" y="0" width="40" height="40">
<rect width="40" height="40" fill="#D9D9D9"/>
</mask>
<g mask="url(#mask0_31_37)">
<path d="M20 36.6667C17.0556 36.6667 14.6528 36.2014 12.7917 35.2708C10.9306 34.3403 10 33.1389 10 31.6667C10 30.6945 10.4028 29.8472 11.2083 29.125C12.0139 28.4028 13.125 27.8333 14.5417 27.4167L15.5 30.5833C15.0278 30.7222 14.5972 30.8958 14.2083 31.1042C13.8194 31.3125 13.5556 31.5 13.4167 31.6667C13.7778 32.1111 14.6111 32.5 15.9167 32.8333C17.2222 33.1667 18.5833 33.3333 20 33.3333C21.4167 33.3333 22.7847 33.1667 24.1042 32.8333C25.4236 32.5 26.2639 32.1111 26.625 31.6667C26.4861 31.5 26.2222 31.3125 25.8333 31.1042C25.4444 30.8958 25.0139 30.7222 24.5417 30.5833L25.5 27.4167C26.9167 27.8333 28.0208 28.4028 28.8125 29.125C29.6042 29.8472 30 30.6945 30 31.6667C30 33.1389 29.0694 34.3403 27.2083 35.2708C25.3472 36.2014 22.9444 36.6667 20 36.6667ZM20 31.6667C19.6944 31.6667 19.4167 31.5764 19.1667 31.3958C18.9167 31.2153 18.7361 30.9722 18.625 30.6667C17.9861 28.6945 17.1806 27.0417 16.2083 25.7083C15.2361 24.375 14.2917 23.0972 13.375 21.875C12.4861 20.6528 11.7153 19.3889 11.0625 18.0833C10.4097 16.7778 10.0833 15.1667 10.0833 13.25C10.0833 10.4722 11.0417 8.12501 12.9583 6.20834C14.875 4.29168 17.2222 3.33334 20 3.33334C22.7778 3.33334 25.125 4.29168 27.0417 6.20834C28.9583 8.12501 29.9167 10.4722 29.9167 13.25C29.9167 15.1667 29.5972 16.7778 28.9583 18.0833C28.3194 19.3889 27.5417 20.6528 26.625 21.875C25.7361 23.0972 24.7986 24.375 23.8125 25.7083C22.8264 27.0417 22.0139 28.6945 21.375 30.6667C21.2639 30.9722 21.0833 31.2153 20.8333 31.3958C20.5833 31.5764 20.3056 31.6667 20 31.6667ZM20 16.7917C20.9722 16.7917 21.8056 16.4445 22.5 15.75C23.1944 15.0556 23.5417 14.2222 23.5417 13.25C23.5417 12.2778 23.1944 11.4445 22.5 10.75C21.8056 10.0556 20.9722 9.70834 20 9.70834C19.0278 9.70834 18.1944 10.0556 17.5 10.75C16.8056 11.4445 16.4583 12.2778 16.4583 13.25C16.4583 14.2222 16.8056 15.0556 17.5 15.75C18.1944 16.4445 19.0278 16.7917 20 16.7917Z" fill="#002254"/>
</g>
</svg>
