<svg width="201" height="103" viewBox="0 0 201 103" fill="none" xmlns="http://www.w3.org/2000/svg">
<path d="M69.9042 41.384C70.6296 41.384 71.1629 41.5547 71.5042 41.896C71.8456 42.2373 72.0162 42.7707 72.0162 43.496V60.712C72.0162 62.4187 70.5869 63.6347 67.7282 64.36C64.9122 65.0853 61.5202 65.448 57.5522 65.448C44.1549 65.448 37.4562 57.9173 37.4562 42.856C37.4562 27.4533 44.4109 19.752 58.3202 19.752C60.3256 19.752 62.3096 19.9653 64.2722 20.392C66.2349 20.776 67.8349 21.288 69.0722 21.928C70.3522 22.568 70.9922 23.2293 70.9922 23.912C70.9922 24.5947 70.6509 25.4907 69.9682 26.6C69.3282 27.7093 68.7522 28.264 68.2402 28.264C68.1122 28.264 67.5789 28.0293 66.6402 27.56C65.7016 27.0907 64.5282 26.664 63.1202 26.28C61.7549 25.896 60.1762 25.704 58.3842 25.704C53.4349 25.704 49.8722 27.112 47.6962 29.928C45.5629 32.7013 44.4962 36.8827 44.4962 42.472C44.4962 47.8053 45.5202 51.9867 47.5682 55.016C49.6162 58.0453 53.0509 59.56 57.8722 59.56C60.5602 59.56 62.9922 59.304 65.1682 58.792V47.272H58.1922C57.6802 47.272 57.2962 47.1013 57.0402 46.76C56.8269 46.376 56.7202 45.7787 56.7202 44.968V43.688C56.7202 42.8773 56.8269 42.3013 57.0402 41.96C57.2962 41.576 57.6802 41.384 58.1922 41.384H69.9042ZM90.5042 65.448C87.2616 65.448 84.7016 64.6373 82.8242 63.016C80.9469 61.352 80.0082 58.984 80.0082 55.912C80.0082 51.6027 81.8002 48.5947 85.3842 46.888C88.9682 45.1387 93.9816 44.2427 100.424 44.2V41.448C100.424 39.9547 99.9122 38.76 98.8882 37.864C97.8642 36.968 96.2216 36.52 93.9602 36.52C92.2109 36.52 90.6749 36.7333 89.3522 37.16C88.0722 37.544 86.9629 37.9707 86.0242 38.44C85.1282 38.8667 84.6162 39.08 84.4882 39.08C84.0189 39.08 83.4642 38.5893 82.8242 37.608C82.2269 36.584 81.9282 35.816 81.9282 35.304C81.9282 34.7067 82.4829 34.088 83.5922 33.448C84.7442 32.7653 86.2376 32.2107 88.0722 31.784C89.9496 31.3147 91.9336 31.08 94.0242 31.08C98.2482 31.08 101.448 31.9973 103.624 33.832C105.843 35.624 106.952 38.12 106.952 41.32V55.016C106.952 57.8747 107.08 59.944 107.336 61.224C107.592 62.504 107.72 63.2293 107.72 63.4C107.72 63.9973 107.187 64.424 106.12 64.68C105.096 64.936 104.136 65.064 103.24 65.064C102.558 65.064 102.067 64.744 101.768 64.104C101.512 63.464 101.299 62.7813 101.128 62.056C101 61.3307 100.915 60.84 100.872 60.584C99.7202 61.9493 98.2696 63.1013 96.5202 64.04C94.8136 64.9787 92.8082 65.448 90.5042 65.448ZM91.5922 59.944C93.4696 59.944 95.1122 59.56 96.5202 58.792C97.9282 58.024 99.2296 56.9787 100.424 55.656V49.256C96.2856 49.256 92.9789 49.6613 90.5042 50.472C88.0296 51.24 86.7922 52.8827 86.7922 55.4C86.7922 56.8507 87.1976 57.9813 88.0082 58.792C88.8616 59.56 90.0562 59.944 91.5922 59.944ZM126.531 65.448C123.289 65.448 120.771 64.552 118.979 62.76C117.23 60.9253 116.355 58.3653 116.355 55.08V33C116.355 31.9333 117.337 31.4 119.299 31.4H120.003C121.966 31.4 122.947 31.9333 122.947 33V54.312C122.947 56.0613 123.438 57.4267 124.419 58.408C125.401 59.3467 126.83 59.816 128.707 59.816C130.073 59.816 131.395 59.432 132.675 58.664C133.955 57.8533 135.022 56.8293 135.875 55.592V33C135.875 31.9333 136.857 31.4 138.819 31.4H139.523C141.486 31.4 142.467 31.9333 142.467 33V55.016C142.467 57.8747 142.595 59.944 142.851 61.224C143.107 62.504 143.235 63.2293 143.235 63.4C143.235 63.9973 142.702 64.424 141.635 64.68C140.569 64.936 139.587 65.064 138.691 65.064C138.051 65.064 137.582 64.744 137.283 64.104C137.027 63.464 136.814 62.7813 136.643 62.056C136.515 61.3307 136.43 60.84 136.387 60.584C135.15 62.0773 133.657 63.272 131.907 64.168C130.158 65.0213 128.366 65.448 126.531 65.448ZM160.108 65.576C158.316 65.576 156.631 65.3627 155.052 64.936C153.474 64.5093 152.194 63.976 151.212 63.336C150.274 62.696 149.804 62.056 149.804 61.416C149.804 60.8613 150.103 60.1147 150.7 59.176C151.34 58.1947 151.895 57.704 152.364 57.704C152.45 57.704 152.876 57.9387 153.644 58.408C154.412 58.8347 155.287 59.2187 156.268 59.56C157.25 59.9013 158.359 60.072 159.596 60.072C161.431 60.072 162.818 59.7307 163.756 59.048C164.695 58.3227 165.164 57.2773 165.164 55.912C165.164 54.5893 164.674 53.5653 163.692 52.84C162.754 52.1147 161.239 51.3893 159.148 50.664C157.399 50.024 155.927 49.3627 154.732 48.68C153.58 47.9973 152.599 47.016 151.788 45.736C150.978 44.4133 150.572 42.728 150.572 40.68C150.572 37.8213 151.575 35.5173 153.58 33.768C155.586 31.976 158.21 31.08 161.452 31.08C163.671 31.08 165.698 31.3787 167.532 31.976C169.367 32.5307 170.284 33.2347 170.284 34.088C170.284 34.728 170.007 35.5387 169.452 36.52C168.94 37.5013 168.45 37.992 167.98 37.992C167.81 37.9493 167.234 37.6933 166.252 37.224C165.271 36.712 163.927 36.456 162.22 36.456C160.727 36.456 159.511 36.776 158.572 37.416C157.634 38.056 157.164 38.9733 157.164 40.168C157.164 41.32 157.527 42.216 158.252 42.856C159.02 43.496 160.364 44.136 162.284 44.776C165.271 45.8 167.596 47.08 169.26 48.616C170.924 50.152 171.756 52.3707 171.756 55.272C171.756 57.2347 171.244 59.0053 170.22 60.584C169.239 62.1627 167.852 63.4 166.06 64.296C164.311 65.1493 162.327 65.576 160.108 65.576ZM186.546 65.576C184.754 65.576 183.068 65.3627 181.49 64.936C179.911 64.5093 178.631 63.976 177.65 63.336C176.711 62.696 176.242 62.056 176.242 61.416C176.242 60.8613 176.54 60.1147 177.138 59.176C177.778 58.1947 178.332 57.704 178.802 57.704C178.887 57.704 179.314 57.9387 180.082 58.408C180.85 58.8347 181.724 59.2187 182.706 59.56C183.687 59.9013 184.796 60.072 186.034 60.072C187.868 60.072 189.255 59.7307 190.194 59.048C191.132 58.3227 191.602 57.2773 191.602 55.912C191.602 54.5893 191.111 53.5653 190.13 52.84C189.191 52.1147 187.676 51.3893 185.586 50.664C183.836 50.024 182.364 49.3627 181.17 48.68C180.018 47.9973 179.036 47.016 178.226 45.736C177.415 44.4133 177.01 42.728 177.01 40.68C177.01 37.8213 178.012 35.5173 180.018 33.768C182.023 31.976 184.647 31.08 187.89 31.08C190.108 31.08 192.135 31.3787 193.97 31.976C195.804 32.5307 196.722 33.2347 196.722 34.088C196.722 34.728 196.444 35.5387 195.89 36.52C195.378 37.5013 194.887 37.992 194.418 37.992C194.247 37.9493 193.671 37.6933 192.69 37.224C191.708 36.712 190.364 36.456 188.658 36.456C187.164 36.456 185.948 36.776 185.01 37.416C184.071 38.056 183.602 38.9733 183.602 40.168C183.602 41.32 183.964 42.216 184.69 42.856C185.458 43.496 186.802 44.136 188.722 44.776C191.708 45.8 194.034 47.08 195.698 48.616C197.362 50.152 198.194 52.3707 198.194 55.272C198.194 57.2347 197.682 59.0053 196.658 60.584C195.676 62.1627 194.29 63.4 192.498 64.296C190.748 65.1493 188.764 65.576 186.546 65.576Z" fill="white"/>
<path d="M0.0275879 42.8535C0.0122178 75.9917 26.8611 102.871 59.9993 102.886L60.0033 94.3141C31.5978 94.3009 8.58504 71.263 8.59822 42.8575L0.0275879 42.8535Z" fill="white"/>
<path d="M60.0435 8.5996C41.106 8.59082 25.7512 23.9352 25.7425 42.8662C25.7337 61.8036 41.0742 77.1623 60.0116 77.1711L60.0077 85.743C36.3362 85.732 17.1596 66.5324 17.1706 42.861C17.1815 19.1934 36.376 0.0167111 60.0474 0.0276904L60.0435 8.5996Z" fill="white"/>
</svg>
