<svg width="40" height="40" viewBox="0 0 40 40" fill="none" xmlns="http://www.w3.org/2000/svg">
<mask id="mask0_33_79" style="mask-type:alpha" maskUnits="userSpaceOnUse" x="0" y="0" width="40" height="40">
<rect width="40" height="40" fill="#D9D9D9"/>
</mask>
<g mask="url(#mask0_33_79)">
<path d="M6.66665 33.3333C5.74998 33.3333 4.96526 33.0069 4.31248 32.3542C3.6597 31.7014 3.33331 30.9167 3.33331 30V9.99999C3.33331 9.08332 3.6597 8.2986 4.31248 7.64582C4.96526 6.99305 5.74998 6.66666 6.66665 6.66666H33.3333C34.25 6.66666 35.0347 6.99305 35.6875 7.64582C36.3403 8.2986 36.6666 9.08332 36.6666 9.99999V30C36.6666 30.9167 36.3403 31.7014 35.6875 32.3542C35.0347 33.0069 34.25 33.3333 33.3333 33.3333H6.66665ZM20 21.6667L33.3333 13.3333V9.99999L20 18.3333L6.66665 9.99999V13.3333L20 21.6667Z" fill="#002254"/>
</g>
</svg>
