<svg width="40" height="40" viewBox="0 0 40 40" fill="none" xmlns="http://www.w3.org/2000/svg">
<mask id="mask0_21_31" style="mask-type:alpha" maskUnits="userSpaceOnUse" x="0" y="0" width="40" height="40">
<rect width="40" height="40" fill="#D9D9D9"/>
</mask>
<g mask="url(#mask0_21_31)">
<path d="M15.9167 36.6667L15.1389 31.3889C14.6667 31.213 14.1829 30.9815 13.6875 30.6945C13.1921 30.4074 12.7453 30.1065 12.3472 29.7917L7.41667 31.9861L3.30554 24.7917L7.73613 21.5139C7.68982 21.2824 7.66204 21.0301 7.65279 20.757C7.64351 20.4838 7.63888 20.2315 7.63888 20C7.63888 19.7685 7.64351 19.5162 7.65279 19.243C7.66204 18.9699 7.68982 18.7176 7.73613 18.4861L3.30554 15.2083L7.41667 8.01391L12.3472 10.2083C12.7453 9.89352 13.1944 9.59259 13.6945 9.30554C14.1945 9.01851 14.6759 8.79629 15.1389 8.63887L15.9167 3.33333H24.0833L24.8611 8.61112C25.3333 8.78704 25.8218 9.01388 26.3264 9.29166C26.831 9.56944 27.2732 9.875 27.6528 10.2083L32.5833 8.01391L36.6945 15.2083L32.2639 18.4305C32.3102 18.6805 32.338 18.9421 32.3472 19.2153C32.3565 19.4884 32.3611 19.75 32.3611 20C32.3611 20.25 32.3565 20.5069 32.3472 20.7708C32.338 21.0347 32.3056 21.2917 32.25 21.5417L36.6805 24.7917L32.5695 31.9861L27.6528 29.7917C27.2547 30.1065 26.8102 30.412 26.3195 30.7083C25.8287 31.0046 25.3426 31.2315 24.8611 31.3889L24.0833 36.6667H15.9167ZM20.0278 25.5555C21.5648 25.5555 22.875 25.0139 23.9583 23.9305C25.0417 22.8472 25.5833 21.537 25.5833 20C25.5833 18.463 25.0417 17.1528 23.9583 16.0695C22.875 14.9861 21.5648 14.4445 20.0278 14.4445C18.4815 14.4445 17.169 14.9861 16.0903 16.0695C15.0116 17.1528 14.4722 18.463 14.4722 20C14.4722 21.537 15.0116 22.8472 16.0903 23.9305C17.169 25.0139 18.4815 25.5555 20.0278 25.5555Z" fill="#002250"/>
</g>
</svg>
