<svg width="40" height="40" viewBox="0 0 40 40" fill="none" xmlns="http://www.w3.org/2000/svg">
<mask id="mask0_31_61" style="mask-type:alpha" maskUnits="userSpaceOnUse" x="0" y="0" width="40" height="40">
<rect width="40" height="40" fill="#D9D9D9"/>
</mask>
<g mask="url(#mask0_31_61)">
<path d="M20 21.6667C21.6111 21.6667 22.9861 21.0972 24.125 19.9583C25.2639 18.8194 25.8333 17.4444 25.8333 15.8333C25.8333 14.2222 25.2639 12.8472 24.125 11.7083C22.9861 10.5694 21.6111 10 20 10C18.3889 10 17.0139 10.5694 15.875 11.7083C14.7361 12.8472 14.1667 14.2222 14.1667 15.8333C14.1667 17.4444 14.7361 18.8194 15.875 19.9583C17.0139 21.0972 18.3889 21.6667 20 21.6667ZM8.33333 35C7.41667 35 6.63194 34.6736 5.97917 34.0208C5.32639 33.3681 5 32.5833 5 31.6667V8.33333C5 7.41667 5.32639 6.63194 5.97917 5.97917C6.63194 5.32639 7.41667 5 8.33333 5H31.6667C32.5833 5 33.3681 5.32639 34.0208 5.97917C34.6736 6.63194 35 7.41667 35 8.33333V31.6667C35 32.5833 34.6736 33.3681 34.0208 34.0208C33.3681 34.6736 32.5833 35 31.6667 35H8.33333ZM8.33333 31.6667H31.6667V29.75C30.1667 28.2778 28.4236 27.1181 26.4375 26.2708C24.4514 25.4236 22.3056 25 20 25C17.6944 25 15.5486 25.4236 13.5625 26.2708C11.5764 27.1181 9.83333 28.2778 8.33333 29.75V31.6667Z" fill="#002254"/>
</g>
</svg>
