<svg width="40" height="40" viewBox="0 0 40 40" fill="none" xmlns="http://www.w3.org/2000/svg">
<mask id="mask0_23_49" style="mask-type:alpha" maskUnits="userSpaceOnUse" x="0" y="0" width="40" height="40">
<rect width="40" height="40" fill="#051a3f"/>
</mask>
<g mask="url(#mask0_23_49)">
<path d="M15 33.3333C14.4722 33.3333 14 33.1805 13.5834 32.875C13.1667 32.5694 12.8611 32.1805 12.6667 31.7083L8.83335 21.6667H1.66669V18.3333H11.1667L15 28.5L22.6667 8.29166C22.8611 7.81943 23.1667 7.43055 23.5834 7.12499C24 6.81943 24.4722 6.66666 25 6.66666C25.5278 6.66666 26 6.81943 26.4167 7.12499C26.8334 7.43055 27.1389 7.81943 27.3334 8.29166L31.1667 18.3333H38.3334V21.6667H28.8334L25 11.5L17.3334 31.7083C17.1389 32.1805 16.8334 32.5694 16.4167 32.875C16 33.1805 15.5278 33.3333 15 33.3333Z" fill="#002254"/>
</g>
</svg>
